<svg width="23" height="24" viewBox="0 0 23 24" fill="none" xmlns="http://www.w3.org/2000/svg">
<path d="M14.279 2H8.72068C8.06901 2 7.149 2.4 6.689 2.88L2.75984 6.98001C2.29984 7.46001 1.9165 8.42001 1.9165 9.10001V14.9C1.9165 15.58 2.29984 16.54 2.75984 17.02L6.689 21.12C7.149 21.6 8.06901 22 8.72068 22H14.279C14.9307 22 15.8507 21.6 16.3107 21.12L20.2398 17.02C20.6998 16.54 21.0832 15.58 21.0832 14.9V9.10001C21.0832 8.42001 20.6998 7.46001 20.2398 6.98001L16.3107 2.88C15.8507 2.4 14.9307 2 14.279 2Z" stroke="#242731" stroke-width="1.5" stroke-linecap="round" stroke-linejoin="round"/>
<path d="M4.73438 19.0799L18.2852 4.93994" stroke="#242731" stroke-width="1.5" stroke-linecap="round" stroke-linejoin="round"/>
</svg>
