<svg width="33" height="32" viewBox="0 0 33 32" fill="none" xmlns="http://www.w3.org/2000/svg">
<g clip-path="url(#clip0_1482_4753)">
<path fill-rule="evenodd" clip-rule="evenodd" d="M17.1335 5.22667C16.7648 4.92444 16.2341 4.92444 15.8655 5.22669L5.13214 14.0267C4.80543 14.2945 4.6823 14.7389 4.82454 15.1367C4.96678 15.5345 5.34368 15.8 5.76616 15.8H7.32057L8.1153 24.4852C8.19377 25.3433 8.91337 26 9.77504 26H14.8332C15.2014 26 15.4998 25.7015 15.4998 25.3333V18.8769C15.4998 18.5087 15.7983 18.2102 16.1665 18.2102H16.8332C17.2014 18.2102 17.4998 18.5087 17.4998 18.8769V25.3333C17.4998 25.7015 17.7983 26 18.1665 26H23.2248C24.0864 26 24.806 25.3433 24.8845 24.4852L25.6792 15.8H27.2332C27.6557 15.8 28.0326 15.5345 28.1748 15.1367C28.3171 14.7388 28.194 14.2945 27.8672 14.0267L17.1335 5.22667Z" fill="#11142D"/>
</g>
<defs>
<clipPath id="clip0_1482_4753">
<rect width="32" height="32" fill="white" transform="translate(0.5)"/>
</clipPath>
</defs>
</svg>
