<svg width="32" height="28" viewBox="0 0 32 28" fill="none" xmlns="http://www.w3.org/2000/svg">
<g clip-path="url(#clip0_1482_15426)">
<g clip-path="url(#clip1_1482_15426)">
<path d="M1.33955 16.7651C0.325201 16.7651 -0.5 17.5903 -0.5 18.6046V25.7894C-0.5 26.8037 0.325201 27.6289 1.33955 27.6289H6.73899V16.7651H1.33955Z" fill="#875CFF"/>
<path d="M26.0357 20.0825H20.6362V27.6292H26.0357C27.0501 27.6292 27.8753 26.804 27.8753 25.7897V21.922C27.8752 20.9077 27.05 20.0825 26.0357 20.0825Z" fill="#875CFF"/>
<path d="M17.1318 12.6001H10.2429C9.22852 12.6001 8.40332 13.4253 8.40332 14.4396V27.6291H18.9713V14.4396C18.9713 13.4252 18.1461 12.6001 17.1318 12.6001ZM13.8537 21.176C13.3942 21.176 13.0215 20.8033 13.0215 20.3437V18.6533L13.0138 18.659C12.8641 18.7713 12.6888 18.8256 12.515 18.8256C12.262 18.8256 12.0122 18.7107 11.8486 18.4927C11.5728 18.125 11.6473 17.6033 12.0149 17.3275L13.3542 16.3228C13.3593 16.319 13.3646 16.3159 13.3697 16.3123C13.3825 16.3031 13.3955 16.2944 13.4089 16.2859C13.4191 16.2794 13.4293 16.2732 13.4398 16.2672C13.4528 16.2597 13.4661 16.2527 13.4796 16.2459C13.4909 16.2402 13.5022 16.2346 13.5137 16.2295C13.5266 16.2237 13.5398 16.2184 13.553 16.2132C13.5655 16.2084 13.578 16.2037 13.5906 16.1995C13.6033 16.1953 13.6161 16.1916 13.629 16.188C13.6427 16.1842 13.6564 16.1805 13.6702 16.1774C13.6824 16.1746 13.6949 16.1723 13.7073 16.1701C13.7222 16.1674 13.7371 16.1651 13.7521 16.1633C13.7639 16.1618 13.7757 16.1607 13.7877 16.1598C13.8036 16.1585 13.8194 16.1577 13.8353 16.1574C13.8415 16.1573 13.8475 16.1564 13.8537 16.1564C13.8596 16.1564 13.8653 16.1572 13.8711 16.1573C13.8862 16.1577 13.9014 16.1585 13.9164 16.1596C13.9296 16.1606 13.9427 16.1617 13.9557 16.1633C13.9687 16.1649 13.9818 16.167 13.9947 16.1692C14.0091 16.1717 14.0234 16.1742 14.0375 16.1774C14.0492 16.1801 14.0606 16.1832 14.0723 16.1864C14.0868 16.1904 14.1014 16.1943 14.1156 16.1991C14.1271 16.2028 14.1384 16.2072 14.1497 16.2115C14.1632 16.2167 14.1767 16.2218 14.1899 16.2276C14.2021 16.233 14.2141 16.2391 14.2262 16.2451C14.2377 16.2508 14.2493 16.2565 14.2606 16.2628C14.2736 16.2701 14.2861 16.278 14.2988 16.286C14.3086 16.2922 14.3185 16.2984 14.3281 16.305C14.3407 16.3138 14.353 16.3233 14.3653 16.3328C14.3744 16.3399 14.3835 16.347 14.3923 16.3545C14.4036 16.364 14.4144 16.3741 14.4253 16.3844C14.4347 16.3933 14.4439 16.4022 14.4528 16.4115C14.462 16.4211 14.471 16.431 14.4798 16.4412C14.4896 16.4524 14.4992 16.4639 14.5085 16.4757C14.5122 16.4803 14.5162 16.4844 14.5198 16.4892C14.5236 16.4942 14.5266 16.4996 14.5302 16.5046C14.5393 16.5174 14.5482 16.5305 14.5566 16.5438C14.5631 16.554 14.5694 16.5643 14.5754 16.5747C14.5829 16.5877 14.5898 16.601 14.5967 16.6144C14.6024 16.6258 14.608 16.6371 14.6131 16.6487C14.6189 16.6615 14.6241 16.6747 14.6293 16.6879C14.6342 16.7004 14.6389 16.713 14.6431 16.7256C14.6473 16.7382 14.651 16.751 14.6546 16.7638C14.6584 16.7775 14.6621 16.7913 14.6652 16.8051C14.668 16.8173 14.6703 16.8297 14.6725 16.8422C14.6751 16.8571 14.6775 16.872 14.6793 16.887C14.6807 16.8988 14.6818 16.9107 14.6828 16.9226C14.684 16.9385 14.6848 16.9544 14.6852 16.9702C14.6853 16.9764 14.6861 16.9825 14.6861 16.9887V20.3438H14.6862C14.686 20.8033 14.3134 21.176 13.8537 21.176Z" fill="#875CFF"/>
<path d="M18.3354 4.1225C18.2209 3.7702 17.922 3.5182 17.5553 3.46489L15.4813 3.16352L14.5539 1.28423C14.3899 0.951989 14.0579 0.745605 13.6873 0.745605C13.3169 0.745605 12.9848 0.951989 12.8208 1.28423L11.8933 3.16357L9.81931 3.46494C9.45265 3.5182 9.15372 3.7702 9.03922 4.12261C8.92473 4.47503 9.01844 4.8546 9.28374 5.11319L10.7845 6.57605L10.4302 8.64177C10.3676 9.00693 10.5149 9.36904 10.8147 9.58684C11.1145 9.80464 11.5044 9.83274 11.8323 9.66033L13.6874 8.6851L15.5424 9.66033C15.6851 9.73536 15.8395 9.77238 15.993 9.77238C16.1925 9.77238 16.3908 9.70987 16.5602 9.58673C16.86 9.36893 17.0072 9.0067 16.9446 8.64165L16.5903 6.57605L18.0912 5.11307C18.3562 4.85443 18.4499 4.47486 18.3354 4.1225Z" fill="#FCCD38"/>
</g>
</g>
<defs>
<clipPath id="clip0_1482_15426">
<rect width="31.9" height="28" fill="white"/>
</clipPath>
<clipPath id="clip1_1482_15426">
<rect width="28.375" height="28.375" fill="white" transform="translate(-0.5)"/>
</clipPath>
</defs>
</svg>
