<svg width="23" height="24" viewBox="0 0 23 24" fill="none" xmlns="http://www.w3.org/2000/svg">
<path d="M16.2915 18.43H12.4582L8.19358 21.39C7.56108 21.83 6.70817 21.36 6.70817 20.56V18.43C3.83317 18.43 1.9165 16.43 1.9165 13.43V7.42993C1.9165 4.42993 3.83317 2.42993 6.70817 2.42993H16.2915C19.1665 2.42993 21.0832 4.42993 21.0832 7.42993V13.43C21.0832 16.43 19.1665 18.43 16.2915 18.43Z" fill="#242731"/>
<path d="M11.5 11.36V11.15C11.5 10.47 11.9025 10.11 12.305 9.82001C12.6979 9.54001 13.0908 9.18002 13.0908 8.52002C13.0908 7.60002 12.3817 6.85999 11.5 6.85999C10.6183 6.85999 9.90918 7.60002 9.90918 8.52002" fill="#242731"/>
</svg>
