<svg width="23" height="24" viewBox="0 0 23 24" fill="none" xmlns="http://www.w3.org/2000/svg">
<path d="M11.5193 2.91003C8.34723 2.91003 5.76931 5.60003 5.76931 8.91003V11.8C5.76931 12.41 5.52014 13.34 5.22306 13.86L4.12098 15.77C3.44056 16.95 3.91015 18.26 5.15598 18.7C9.28639 20.14 13.7426 20.14 17.8731 18.7C19.0326 18.3 19.5406 16.87 18.9081 15.77L17.806 13.86C17.5185 13.34 17.2693 12.41 17.2693 11.8V8.91003C17.2693 5.61003 14.6818 2.91003 11.5193 2.91003Z" stroke="#242731" stroke-width="1.5" stroke-miterlimit="10" stroke-linecap="round"/>
<path d="M13.2919 3.19994C12.9948 3.10994 12.6882 3.03994 12.3719 2.99994C11.4519 2.87994 10.5703 2.94994 9.74609 3.19994C10.024 2.45994 10.714 1.93994 11.519 1.93994C12.324 1.93994 13.014 2.45994 13.2919 3.19994Z" stroke="#242731" stroke-width="1.5" stroke-miterlimit="10" stroke-linecap="round" stroke-linejoin="round"/>
<path d="M14.394 19.0601C14.394 20.7101 13.1003 22.0601 11.519 22.0601C10.7332 22.0601 10.0049 21.7201 9.48738 21.1801C8.96988 20.6401 8.64404 19.8801 8.64404 19.0601" stroke="#242731" stroke-width="1.5" stroke-miterlimit="10"/>
</svg>
