<svg width="32" height="32" viewBox="0 0 32 32" fill="none" xmlns="http://www.w3.org/2000/svg">
<g clip-path="url(#clip0_1482_4758)">
<path fill-rule="evenodd" clip-rule="evenodd" d="M12.0002 8.3335C10.3933 8.3335 9.05676 9.66803 9.05676 11.3565C9.05676 13.045 10.3933 14.3795 12.0002 14.3795C13.607 14.3795 14.9436 13.045 14.9436 11.3565C14.9436 9.66803 13.607 8.3335 12.0002 8.3335ZM7.05676 11.3565C7.05676 8.6013 9.25123 6.3335 12.0002 6.3335C14.7491 6.3335 16.9436 8.6013 16.9436 11.3565C16.9436 14.1117 14.7491 16.3795 12.0002 16.3795C9.25123 16.3795 7.05676 14.1117 7.05676 11.3565ZM12.0002 19.9197C9.3869 19.9197 7.16036 21.7079 6.46481 24.1784C6.36503 24.5328 6.02572 24.7807 5.66241 24.7209L5.00458 24.6128C4.64127 24.553 4.39241 24.2089 4.48233 23.8519C5.33838 20.4527 8.36743 17.9197 12.0002 17.9197C15.6328 17.9197 18.662 20.4527 19.518 23.8519C19.6079 24.2089 19.359 24.553 18.9958 24.6128L18.3379 24.7209C17.9746 24.7807 17.6353 24.5328 17.5355 24.1784C16.84 21.7079 14.6134 19.9197 12.0002 19.9197Z" fill="#11142D"/>
<path fill-rule="evenodd" clip-rule="evenodd" d="M21.9998 21.0249C21.4961 21.0249 21.013 21.1122 20.5629 21.273C20.2162 21.3969 19.8124 21.283 19.6364 20.9596L19.3177 20.374C19.1418 20.0506 19.2603 19.6422 19.6004 19.5012C20.3418 19.1942 21.1521 19.0249 21.9998 19.0249C24.9701 19.0249 27.4394 21.087 28.1802 23.8543C28.2755 24.21 28.0255 24.554 27.6621 24.6132L27.0041 24.7204C26.6407 24.7796 26.3029 24.5306 26.1927 24.1792C25.6143 22.3335 23.9398 21.0249 21.9998 21.0249Z" fill="#11142D"/>
<path fill-rule="evenodd" clip-rule="evenodd" d="M22.0002 12.3335C21.0797 12.3335 20.3335 13.0797 20.3335 14.0002C20.3335 14.9206 21.0797 15.6668 22.0002 15.6668C22.9206 15.6668 23.6668 14.9206 23.6668 14.0002C23.6668 13.0797 22.9206 12.3335 22.0002 12.3335ZM18.3335 14.0002C18.3335 11.9751 19.9751 10.3335 22.0002 10.3335C24.0252 10.3335 25.6668 11.9751 25.6668 14.0002C25.6668 16.0252 24.0252 17.6668 22.0002 17.6668C19.9751 17.6668 18.3335 16.0252 18.3335 14.0002Z" fill="#11142D"/>
</g>
<defs>
<clipPath id="clip0_1482_4758">
<rect width="32" height="32" fill="white"/>
</clipPath>
</defs>
</svg>
