<svg width="16" height="16" viewBox="0 0 16 16" fill="none" xmlns="http://www.w3.org/2000/svg">
<path opacity="0.4" d="M11.6867 5.18017C11.64 5.1735 11.5934 5.1735 11.5467 5.18017C10.5134 5.14683 9.69336 4.30016 9.69336 3.26016C9.69336 2.20016 10.5534 1.3335 11.62 1.3335C12.68 1.3335 13.5467 2.1935 13.5467 3.26016C13.54 4.30016 12.72 5.14683 11.6867 5.18017Z" fill="#1B2124"/>
<path opacity="0.4" d="M13.8602 9.79977C13.1136 10.2998 12.0669 10.4864 11.1002 10.3598C11.3536 9.81311 11.4869 9.20645 11.4936 8.56645C11.4936 7.89978 11.3469 7.26645 11.0669 6.71311C12.0536 6.57978 13.1002 6.76644 13.8536 7.26644C14.9069 7.95977 14.9069 9.09977 13.8602 9.79977Z" fill="#1B2124"/>
<path opacity="0.4" d="M4.2931 5.18017C4.33977 5.1735 4.38644 5.1735 4.43311 5.18017C5.46644 5.14683 6.28644 4.30016 6.28644 3.26016C6.28644 2.20016 5.42644 1.3335 4.35977 1.3335C3.29977 1.3335 2.43311 2.1935 2.43311 3.26016C2.43977 4.30016 3.25977 5.14683 4.2931 5.18017Z" fill="#1B2124"/>
<path opacity="0.4" d="M4.36674 8.56658C4.36674 9.21324 4.50674 9.82658 4.76008 10.3799C3.82008 10.4799 2.84008 10.2799 2.12008 9.80658C1.06674 9.10658 1.06674 7.96657 2.12008 7.26657C2.83341 6.78657 3.84008 6.59324 4.78674 6.69991C4.51341 7.25991 4.36674 7.89324 4.36674 8.56658Z" fill="#1B2124"/>
<path d="M8.0802 10.58C8.02686 10.5733 7.96686 10.5733 7.90686 10.58C6.6802 10.54 5.7002 9.53334 5.7002 8.29334C5.7002 7.02667 6.7202 6 7.99353 6C9.2602 6 10.2869 7.02667 10.2869 8.29334C10.2869 9.53334 9.31353 10.54 8.0802 10.58Z" fill="white"/>
<path d="M5.9132 11.9598C4.90654 12.6331 4.90654 13.7398 5.9132 14.4064C7.05987 15.1731 8.93987 15.1731 10.0865 14.4064C11.0932 13.7331 11.0932 12.6264 10.0865 11.9598C8.94654 11.1931 7.06654 11.1931 5.9132 11.9598Z" fill="white"/>
</svg>
