<svg width="41" height="41" viewBox="0 0 41 41" fill="none" xmlns="http://www.w3.org/2000/svg">
<path d="M25.5555 2.66699H15.3333V6.0744H25.5555V2.66699ZM18.7407 24.8151H22.1481V14.5929H18.7407V24.8151ZM32.4215 13.5537L34.8407 11.1344C34.1081 10.2655 33.3074 9.44773 32.4385 8.73218L30.0192 11.1514C27.3785 9.03884 24.0563 7.7781 20.4444 7.7781C11.977 7.7781 5.11108 14.644 5.11108 23.1114C5.11108 31.5788 11.96 38.4448 20.4444 38.4448C28.9289 38.4448 35.7778 31.5788 35.7778 23.1114C35.7778 19.4996 34.517 16.1774 32.4215 13.5537ZM20.4444 35.0374C13.8511 35.0374 8.51849 29.7048 8.51849 23.1114C8.51849 16.5181 13.8511 11.1855 20.4444 11.1855C27.0378 11.1855 32.3703 16.5181 32.3703 23.1114C32.3703 29.7048 27.0378 35.0374 20.4444 35.0374Z" fill="white"/>
</svg>
