<svg width="23" height="24" viewBox="0 0 23 24" fill="none" xmlns="http://www.w3.org/2000/svg">
<path d="M11.5002 12C14.1465 12 16.2918 9.76142 16.2918 7C16.2918 4.23858 14.1465 2 11.5002 2C8.8538 2 6.7085 4.23858 6.7085 7C6.7085 9.76142 8.8538 12 11.5002 12Z" fill="#242731"/>
<path d="M3.26807 22C3.26807 18.13 6.95768 15 11.5002 15Z" fill="#242731"/>
<path d="M17.4417 21.4C19.1354 21.4 20.5084 19.9673 20.5084 18.2C20.5084 16.4327 19.1354 15 17.4417 15C15.748 15 14.375 16.4327 14.375 18.2C14.375 19.9673 15.748 21.4 17.4417 21.4Z" fill="#242731"/>
</svg>
