<svg width="23" height="24" viewBox="0 0 23 24" fill="none" xmlns="http://www.w3.org/2000/svg">
<path d="M12.4585 9H6.7085" stroke="#242731" stroke-width="1.5" stroke-linecap="round" stroke-linejoin="round"/>
<path d="M21.0834 10.9699V13.03C21.0834 13.58 20.6617 14.0299 20.125 14.0499H18.2467C17.2117 14.0499 16.263 13.2599 16.1767 12.1799C16.1192 11.5499 16.3492 10.9599 16.7517 10.5499C17.1063 10.1699 17.595 9.94995 18.1317 9.94995H20.125C20.6617 9.96995 21.0834 10.4199 21.0834 10.9699Z" stroke="#242731" stroke-width="1.5" stroke-linecap="round" stroke-linejoin="round"/>
<path d="M16.7515 10.55C16.349 10.96 16.119 11.55 16.1765 12.18C16.2628 13.26 17.2115 14.05 18.2465 14.05H20.1248V15.5C20.1248 18.5 18.2082 20.5 15.3332 20.5H6.70817C3.83317 20.5 1.9165 18.5 1.9165 15.5V8.5C1.9165 5.78 3.48817 3.88 5.93192 3.56C6.18109 3.52 6.43984 3.5 6.70817 3.5H15.3332C15.5823 3.5 15.8219 3.50999 16.0519 3.54999C18.5244 3.84999 20.1248 5.76 20.1248 8.5V9.95001H18.1315C17.5948 9.95001 17.1061 10.17 16.7515 10.55Z" stroke="#242731" stroke-width="1.5" stroke-linecap="round" stroke-linejoin="round"/>
</svg>
